<?xml version="1.0" encoding="utf-8"?>
<!-- Generator: Adobe Illustrator 22.0.1, SVG Export Plug-In . SVG Version: 6.00 Build 0)  -->
<svg version="1.1" id="レイヤー_1" xmlns="http://www.w3.org/2000/svg" xmlns:xlink="http://www.w3.org/1999/xlink" x="0px"
	 y="0px" viewBox="0 0 168 55.7" style="enable-background:new 0 0 168 55.7;" xml:space="preserve">
<style type="text/css">
	.st0{fill:#4C4948;}
</style>
<g>
	<g>
		<path class="st0" d="M8.7,44.4C8.5,43.5,8,43,7.2,43c-0.9,0-1.4,0.4-1.4,1.1c0,0.7,0.3,1.1,1.6,1.4l0.5,0.1c2,0.5,2.5,1.3,2.5,2.5
			c0,1.5-1,2.5-3.1,2.5c-1.7,0-2.8-0.7-3.2-2.2L5.4,48c0.2,1,0.9,1.5,1.8,1.5c1.1,0,1.6-0.5,1.6-1.2c0-0.7-0.3-1.1-1.7-1.5l-0.4-0.1
			c-1.8-0.5-2.4-1.2-2.4-2.5c0-1.3,1-2.3,2.9-2.3c1.5,0,2.6,0.7,3,2.1L8.7,44.4z"/>
		<path class="st0" d="M26.1,50.5h-1.5v-3.8h-3.6v3.8h-1.5V42h1.5v3.5h3.6V42h1.5V50.5z"/>
		<path class="st0" d="M37.4,50.5h-1.5V42h1.5V50.5z"/>
		<path class="st0" d="M53.8,50.5h-1.8l-2.1-4.4c-0.5-1.1-0.8-1.8-1.2-2.8h-0.2c0.1,1,0.1,2,0.1,3.1v4.1h-1.4V42h2.2l1.8,3.8
			c0.5,1.1,0.8,1.9,1.1,2.9h0.2c-0.1-1-0.1-2-0.1-3.1V42h1.4V50.5z"/>
		<path class="st0" d="M72,50.5h-1.4v-4.3c0-1.1,0-2,0-3h-0.2c-0.2,1-0.4,1.8-0.7,2.9l-1.2,4.4h-1.7l-1.1-4.3
			c-0.3-1-0.5-1.9-0.7-2.9h-0.2c0,1,0,2,0,3v4.3h-1.3V42H66l1.1,4.3c0.2,0.9,0.4,1.9,0.6,2.8h0.2c0.2-0.9,0.4-1.8,0.7-2.8l1.1-4.4
			H72V50.5z"/>
		<path class="st0" d="M87.4,43.2h-4.2v2.2h3.1v1.2h-3.1v2.7h4.3v1.2h-5.7V42h5.7V43.2z"/>
		<path class="st0" d="M98.2,50.5h-1.5V42h1.5V50.5z"/>
		<path class="st0" d="M113,44.7c-0.2-1.1-0.8-1.7-1.8-1.7c-1.3,0-2.2,1.1-2.2,3.3c0,2.2,0.9,3.3,2.2,3.3c1.2,0,1.8-1,1.9-2.3h-2
			v-1.1h3.4v4.5h-1l-0.2-1.2c-0.4,0.9-1.3,1.3-2.3,1.3c-2.1,0-3.6-1.6-3.6-4.4c0-2.8,1.5-4.4,3.7-4.4c1.8,0,2.9,1,3.2,2.5L113,44.7z
			"/>
		<path class="st0" d="M130.4,50.5h-1.6l-0.7-2.5h-2.6l-0.7,2.5h-1.4L126,42h1.8L130.4,50.5z M127.4,45.2c-0.2-0.7-0.3-1.3-0.5-2.1
			h-0.1c-0.2,0.8-0.3,1.4-0.5,2.1l-0.5,1.7h2.1L127.4,45.2z"/>
		<path class="st0" d="M147.9,50.5h-1.4v-4.3c0-1.1,0-2,0-3h-0.2c-0.2,1-0.4,1.8-0.7,2.9l-1.2,4.4h-1.7l-1.1-4.3
			c-0.3-1-0.5-1.9-0.7-2.9h-0.2c0,1,0,2,0,3v4.3h-1.3V42h2.4l1.1,4.3c0.2,0.9,0.4,1.9,0.6,2.8h0.2c0.2-0.9,0.4-1.8,0.7-2.8l1.1-4.4
			h2.4V50.5z"/>
		<path class="st0" d="M164,50.5h-1.6l-0.7-2.5h-2.6l-0.7,2.5h-1.4l2.6-8.5h1.8L164,50.5z M160.9,45.2c-0.2-0.7-0.3-1.3-0.5-2.1
			h-0.1c-0.2,0.8-0.3,1.4-0.5,2.1l-0.5,1.7h2.1L160.9,45.2z"/>
	</g>
	<g>
		<g>
			<path class="st0" d="M81.5,18.4c0-3.1-2.6-5.7-5.7-5.7S70,15.3,70,18.4s2.6,5.7,5.7,5.7S81.5,21.6,81.5,18.4z M75.8,14.5
				c1.9,0,3.5,1.3,3.9,3.1h-7.8C72.3,15.8,73.9,14.5,75.8,14.5z M71.9,19.3h7.8c-0.4,1.8-2,3.1-3.9,3.1S72.3,21.1,71.9,19.3z"/>
			<path class="st0" d="M89.2,5.7c-3.1,0-5.6,2.5-5.6,5.5h0v11.9L74.5,31l1.2,1.3l9.7-8.4v-4.6H93v12.4h1.7V11.2
				C94.8,8.2,92.3,5.7,89.2,5.7z M85.4,17.6v-2.7H93v2.7H85.4z M93,13.1h-7.7v-1.9h0c0-2.1,1.7-3.8,3.8-3.8c2.1,0,3.8,1.7,3.8,3.8
				V13.1z"/>
		</g>
	</g>
	<g>
		<g>
			<polygon class="st0" points="44.3,6.6 42.8,5.7 28,31.4 29.5,32.3 37.3,18.8 37.2,32.2 39,32.2 39,15.8 			"/>
			<path class="st0" d="M51.6,6.1h-1.7v6.3H43v6.3c0,0.1,0,2.7,2,4.7c1.2,1.2,2.8,1.8,4.9,2v6.8h1.7v-6.8c6.7-0.5,6.8-6.6,6.8-6.7
				v-6.3h-6.8V6.1z M49.8,14.2V18h-5.1v-3.8H49.8z M45.5,21.3c-0.3-0.5-0.5-1.1-0.6-1.5h4.9v3.9C47.8,23.5,46.3,22.7,45.5,21.3z
				 M51.6,23.7v-4h4.9C56.2,21.1,55.1,23.4,51.6,23.7z M56.6,14.2V18h-5.1v-3.8H56.6z"/>
		</g>
	</g>
	<g>
		<g>
			<polygon class="st0" points="128,8.6 119.7,8.6 119.7,5.7 118,5.7 118,8.6 108.1,8.6 108.1,13.5 109.8,13.5 109.8,10.3 127,10.3 
				140.1,32.3 141.6,31.4 			"/>
			<polygon class="st0" points="116.3,11.5 111.5,15.2 112.6,16.6 117.4,12.9 			"/>
			<polygon class="st0" points="109.4,25.9 109.4,27.6 129.5,27.6 129.5,25.9 120.3,25.9 120.3,24.6 125,24.6 125,22.8 120.3,22.8 
				120.3,21.5 127.5,21.5 127.5,19.8 123,19.8 124.4,17.9 123,16.9 120.9,19.8 120.9,19.8 117.8,19.8 116.4,17 114.9,17.8 
				115.9,19.8 111.4,19.8 111.4,21.5 118.6,21.5 118.6,22.8 113.9,22.8 113.9,24.6 118.6,24.6 118.6,25.9 			"/>
			<polygon class="st0" points="109.7,31.4 111.2,32.3 112.6,30 111.1,29.1 			"/>
			<polygon class="st0" points="115.8,30 117.2,32.3 118.7,31.4 117.3,29.1 			"/>
			<polygon class="st0" points="121.5,30 122.9,32.3 124.4,31.4 123,29.1 			"/>
			<polygon class="st0" points="127.2,30 128.7,32.3 130.1,31.4 128.7,29.1 			"/>
			<polygon class="st0" points="120.8,11.7 120.8,15.9 127.2,15.9 127.2,14.2 122.5,14.2 122.5,11.7 			"/>
		</g>
	</g>
</g>
</svg>
